<svg width="96" height="44" viewBox="0 0 96 44" fill="none" xmlns="http://www.w3.org/2000/svg">
<g clip-path="url(#clip0_167_335)">
<rect x="0.00195312" width="43.8182" height="43.8182" rx="10" fill="#474747" fill-opacity="0.15"/>
<rect x="0.31875" y="0.31875" width="43.3625" height="43.3625" rx="9.68125" stroke="url(#paint0_radial_167_335)" stroke-opacity="0.4" stroke-width="0.6375"/>
<path d="M27.5891 30.7961C29.1841 29.0386 30.2221 26.8476 30.572 24.5001L25.0394 23.6757C24.8526 24.9289 24.2984 26.0986 23.4469 27.0368C22.5954 27.9751 21.4848 28.6397 20.2555 28.9468C19.0262 29.2538 17.7335 29.1895 16.5408 28.7618L14.1695 32.4815C13.8099 33.0456 14.0231 33.8015 14.6528 34.0273C16.8869 34.8283 19.3084 34.9489 21.611 34.3738C23.9136 33.7986 25.994 32.5536 27.5891 30.7961Z" fill="white"/>
<path d="M14.6437 15.4615C13.5942 17.2098 13.0104 19.1917 12.9396 21.2187C12.9203 21.7707 13.3935 22.1968 13.9452 22.17L18.5335 21.9477C18.4722 20.6821 18.7875 19.4268 19.4396 18.3405C20.0917 17.2541 21.0513 16.3855 22.1971 15.8446C23.3429 15.3036 24.6233 15.1146 25.8765 15.3013L26.701 9.7687C24.3535 9.41888 21.9551 9.77302 19.8089 10.7863C17.6627 11.7997 15.8652 13.4266 14.6437 15.4615Z" fill="white"/>
</g>
<path d="M54.957 30.9092V17.8076H58.0391V30.9092H54.957ZM56.5039 15.9678C56.0117 15.9678 55.5898 15.8037 55.2383 15.4756C54.8867 15.1475 54.7109 14.7529 54.7109 14.292C54.7109 13.8232 54.8867 13.4248 55.2383 13.0967C55.5898 12.7686 56.0117 12.6045 56.5039 12.6045C56.9883 12.6045 57.4062 12.7686 57.7578 13.0967C58.1094 13.4248 58.2852 13.8193 58.2852 14.2803C58.2852 14.749 58.1094 15.1475 57.7578 15.4756C57.4062 15.8037 56.9883 15.9678 56.5039 15.9678ZM62.4062 23.2451V30.9092H59.3242V17.8076H62.3477V20.0459H62.5C62.7969 19.3115 63.2617 18.7295 63.8945 18.2998C64.5352 17.8623 65.3477 17.6436 66.332 17.6436C67.2383 17.6436 68.0273 17.835 68.6992 18.2178C69.3711 18.6006 69.8906 19.1631 70.2578 19.9053C70.6328 20.6396 70.8203 21.5303 70.8203 22.5771V30.9092H67.7383V23.0576C67.7383 22.1826 67.5117 21.499 67.0586 21.0068C66.6055 20.5068 65.9805 20.2568 65.1836 20.2568C64.6445 20.2568 64.1641 20.374 63.7422 20.6084C63.3281 20.8428 63 21.1826 62.7578 21.6279C62.5234 22.0654 62.4062 22.6045 62.4062 23.2451ZM83.332 17.8076L78.668 30.9092H75.2461L70.5938 17.8076H73.8867L76.9219 27.5459H77.0625L80.0742 17.8076H83.332ZM88.8359 31.167C87.5547 31.167 86.4453 30.8857 85.5078 30.3232C84.5703 29.7607 83.8438 28.9717 83.3281 27.9561C82.8203 26.9404 82.5664 25.7607 82.5664 24.417C82.5664 23.0654 82.8203 21.8818 83.3281 20.8662C83.8438 19.8428 84.5703 19.0498 85.5078 18.4873C86.4453 17.9248 87.5547 17.6436 88.8359 17.6436C90.1172 17.6436 91.2266 17.9248 92.1641 18.4873C93.1016 19.0498 93.8281 19.8428 94.3438 20.8662C94.8594 21.8818 95.1172 23.0654 95.1172 24.417C95.1172 25.7607 94.8594 26.9404 94.3438 27.9561C93.8281 28.9717 93.1016 29.7607 92.1641 30.3232C91.2266 30.8857 90.1172 31.167 88.8359 31.167ZM88.8359 28.6826C89.5469 28.6826 90.1328 28.4951 90.5938 28.1201C91.0547 27.7373 91.3984 27.2217 91.625 26.5732C91.8594 25.9248 91.9766 25.2061 91.9766 24.417C91.9766 23.6123 91.8594 22.8857 91.625 22.2373C91.3984 21.5889 91.0547 21.0771 90.5938 20.7021C90.1328 20.3193 89.5469 20.1279 88.8359 20.1279C88.1406 20.1279 87.5586 20.3193 87.0898 20.7021C86.6211 21.0771 86.2695 21.5889 86.0352 22.2373C85.8086 22.8857 85.6953 23.6123 85.6953 24.417C85.6953 25.2061 85.8086 25.9248 86.0352 26.5732C86.2695 27.2217 86.6211 27.7373 87.0898 28.1201C87.5586 28.4951 88.1406 28.6826 88.8359 28.6826Z" fill="white"/>
<defs>
<radialGradient id="paint0_radial_167_335" cx="0" cy="0" r="1" gradientUnits="userSpaceOnUse" gradientTransform="translate(22 15.2778) rotate(90) scale(28.7222)">
<stop stop-color="white" stop-opacity="0.8"/>
<stop offset="1" stop-color="white" stop-opacity="0.05"/>
</radialGradient>
<clipPath id="clip0_167_335">
<rect x="0.00195312" width="43.8182" height="43.8182" rx="10" fill="white"/>
</clipPath>
</defs>
</svg>
